<?xml version="1.0" encoding="utf-8"?>
<!-- Generator: Adobe Illustrator 19.0.0, SVG Export Plug-In . SVG Version: 6.00 Build 0)  -->
<svg version="1.1" id="Layer_1" xmlns="http://www.w3.org/2000/svg" xmlns:xlink="http://www.w3.org/1999/xlink" x="0px" y="0px"
	 viewBox="0 0 450 450" style="enable-background:new 0 0 450 450;" xml:space="preserve">
<style type="text/css">
	.st0{fill:#FF8400;stroke:#FF8400;stroke-width:10;stroke-miterlimit:10;}
	.st1{fill:#FF8400;stroke:#FF8400;stroke-miterlimit:10;}
	.st2{fill:#919191;stroke:#919191;stroke-miterlimit:10;}
	.st3{fill:#FF8400;}
	.st4{fill:#919191;}
</style>
<g id="XMLID_1_">
	<path id="XMLID_10_" class="st0" d="M198,157c-55,0-99.5,44.5-99.5,99.5c0,55,44.5,99.5,99.5,99.5s99.5-44.5,99.5-99.5
		C297.5,201.5,253,157,198,157z M198.9,328.6c-40,0-72.4-32.4-72.4-72.4s32.4-72.4,72.4-72.4s72.4,32.4,72.4,72.4
		S238.9,328.6,198.9,328.6z"/>
	<g id="XMLID_4_">
		<path id="XMLID_5_" class="st1" d="M268.3,33.3h-77.6v-28h188.8v28h-77.9v227h-33.3V33.3z"/>
	</g>
	<circle id="XMLID_3_" class="st2" cx="199.1" cy="256.1" r="50.3"/>
</g>
<g id="XMLID_7_">
	<path id="XMLID_11_" class="st3" d="M79.9,378.2V412c0,3.3,0.1,6.8,0.2,8.8h-8.1l-0.4-4.3h-0.1c-1.9,3.3-5.4,5-9.2,5
		c-7,0-12.5-5.9-12.5-15.1c-0.1-9.9,6.1-15.6,13.1-15.6c3.6,0,6.4,1.3,7.7,3.3h0.1v-15.9H79.9z M70.8,403.8c0-0.5-0.1-1.1-0.1-1.6
		c-0.5-2.5-2.5-4.5-5.3-4.5c-4.1,0-6.3,3.7-6.3,8.3c0,5,2.5,8.1,6.2,8.1c2.6,0,4.7-1.8,5.3-4.4c0.2-0.7,0.2-1.3,0.2-2.1V403.8z"/>
	<path id="XMLID_14_" class="st4" d="M103.9,420.8l-0.5-2.9h-0.2c-1.9,2.3-4.9,3.6-8.4,3.6c-5.9,0-9.5-4.3-9.5-9
		c0-7.6,6.8-11.3,17.2-11.2v-0.4c0-1.6-0.8-3.8-5.3-3.8c-3,0-6.2,1-8.1,2.2l-1.7-5.9c2-1.1,6.1-2.6,11.4-2.6
		c9.8,0,12.9,5.8,12.9,12.7v10.2c0,2.8,0.1,5.5,0.4,7.1H103.9z M102.8,406.9c-4.8-0.1-8.5,1.1-8.5,4.6c0,2.3,1.6,3.5,3.6,3.5
		c2.3,0,4.1-1.5,4.7-3.4c0.1-0.5,0.2-1,0.2-1.6V406.9z"/>
	<path id="XMLID_17_" class="st4" d="M118.9,400.8c0-3.7-0.1-6.8-0.2-9.4h7.9l0.4,4h0.2c1.2-1.9,4.2-4.7,9.1-4.7
		c6,0,10.5,4,10.5,12.6v17.4h-9.1v-16.3c0-3.8-1.3-6.4-4.6-6.4c-2.5,0-4,1.7-4.6,3.4c-0.2,0.5-0.4,1.4-0.4,2.3v16.9h-9.1V400.8z"/>
	<path id="XMLID_19_" class="st4" d="M163.5,383.3c0,2.5-1.9,4.6-4.9,4.6c-2.9,0-4.8-2-4.7-4.6c-0.1-2.6,1.9-4.6,4.8-4.6
		S163.4,380.6,163.5,383.3z M154.1,420.8v-29.3h9.1v29.3H154.1z"/>
	<path id="XMLID_22_" class="st4" d="M177.5,409c0.3,3.8,4,5.6,8.3,5.6c3.1,0,5.6-0.4,8.1-1.2l1.2,6.2c-3,1.2-6.7,1.8-10.6,1.8
		c-10,0-15.7-5.8-15.7-14.9c0-7.4,4.6-15.7,14.8-15.7c9.5,0,13.1,7.4,13.1,14.6c0,1.6-0.2,2.9-0.3,3.6H177.5z M188.3,402.8
		c0-2.2-1-5.9-5.2-5.9c-3.8,0-5.4,3.5-5.6,5.9H188.3z"/>
	<path id="XMLID_25_" class="st4" d="M202.2,378.2h9.1v42.6h-9.1V378.2z"/>
	<path id="XMLID_27_" class="st3" d="M236.6,388h-10.9v-7.7h31.1v7.7h-11v32.8h-9.2V388z"/>
	<path id="XMLID_29_" class="st4" d="M258.1,401.1c0-4.3-0.1-7.1-0.2-9.7h7.9l0.3,5.4h0.2c1.5-4.3,5.1-6.1,7.9-6.1
		c0.8,0,1.3,0,1.9,0.1v8.6c-0.7-0.1-1.4-0.2-2.5-0.2c-3.4,0-5.6,1.8-6.2,4.6c-0.1,0.6-0.2,1.3-0.2,2v14.9h-9.1V401.1z"/>
	<path id="XMLID_31_" class="st4" d="M296.9,420.8l-0.5-2.9h-0.2c-1.9,2.3-4.9,3.6-8.4,3.6c-5.9,0-9.5-4.3-9.5-9
		c0-7.6,6.8-11.3,17.2-11.2v-0.4c0-1.6-0.8-3.8-5.3-3.8c-3,0-6.2,1-8.1,2.2l-1.7-5.9c2-1.1,6.1-2.6,11.4-2.6
		c9.8,0,12.9,5.8,12.9,12.7v10.2c0,2.8,0.1,5.5,0.4,7.1H296.9z M295.9,406.9c-4.8-0.1-8.5,1.1-8.5,4.6c0,2.3,1.6,3.5,3.6,3.5
		c2.3,0,4.1-1.5,4.7-3.4c0.1-0.5,0.2-1,0.2-1.6V406.9z"/>
	<path id="XMLID_34_" class="st4" d="M318.9,391.4l2.9,4.9c0.8,1.5,1.6,3,2.4,4.4h0.1c0.8-1.6,1.5-3.1,2.3-4.5l2.6-4.7h9.9l-9.7,14
		l9.8,15.4h-10.3l-2.9-5.3c-0.8-1.4-1.6-2.9-2.3-4.4h-0.2c-0.7,1.6-1.5,3-2.2,4.4l-2.8,5.3h-10l10-14.9l-9.7-14.4H318.9z"/>
	<path id="XMLID_36_" class="st4" d="M343.1,378.2h9.1v42.6h-9.1V378.2z"/>
	<path id="XMLID_38_" class="st4" d="M366.6,409c0.3,3.8,4,5.6,8.3,5.6c3.1,0,5.6-0.4,8.1-1.2l1.2,6.2c-3,1.2-6.7,1.8-10.6,1.8
		c-10,0-15.7-5.8-15.7-14.9c0-7.4,4.6-15.7,14.8-15.7c9.5,0,13.1,7.4,13.1,14.6c0,1.6-0.2,2.9-0.3,3.6H366.6z M377.3,402.8
		c0-2.2-1-5.9-5.2-5.9c-3.8,0-5.4,3.5-5.6,5.9H377.3z"/>
	<path id="XMLID_41_" class="st4" d="M391.3,401.1c0-4.3-0.1-7.1-0.2-9.7h7.9l0.3,5.4h0.2c1.5-4.3,5.1-6.1,7.9-6.1
		c0.8,0,1.3,0,1.9,0.1v8.6c-0.7-0.1-1.4-0.2-2.5-0.2c-3.4,0-5.6,1.8-6.2,4.6c-0.1,0.6-0.2,1.3-0.2,2v14.9h-9.1V401.1z"/>
</g>
</svg>
